<svg id="Layer_1" data-name="Layer 1" xmlns="http://www.w3.org/2000/svg" viewBox="0 0 122.88 98.31"><defs><style>.cls-1{fill:#212121;}.cls-2{fill:#fd5;fill-rule:evenodd;}.cls-3{fill:#262626;}</style></defs><title>video-editing-color</title><path class="cls-1" d="M11.51,0h88A11.52,11.52,0,0,1,111,11.51V35a18.26,18.26,0,0,0-5.2.29l-.34.07V25.84H5.55v46h61a16.48,16.48,0,0,0-2.11,5.55H59V92.76h3.25l-.4,3h0a16.69,16.69,0,0,0-.14,2.56H11.51A11.54,11.54,0,0,1,0,86.8V11.51A11.54,11.54,0,0,1,11.51,0Zm42,92.76V77.38H31.14V92.76ZM25.58,77.38h-20V86.8a6,6,0,0,0,6,6H25.58V77.38ZM80.79,20.29V5.55H59V20.28ZM86.34,5.55V20.28h19.14V11.51a6,6,0,0,0-6-6ZM53.5,20.29V5.55H31.14V20.28Zm-27.92,0V5.55H11.51a6,6,0,0,0-6,6v8.77Z"/><path class="cls-1" d="M94.31,94.43l-16.7,3.4L80,80.05,94.31,94.43Zm-9-19.75,22.5-23.41a1.57,1.57,0,0,1,1.93-.3l12.75,12.36a1.35,1.35,0,0,1-.1,2L99.57,89.06,85.29,74.68Z"/><polygon class="cls-2" points="8.97 31.09 99.67 31.09 99.67 38.44 75.26 67.05 8.97 67.05 8.97 31.09 8.97 31.09"/><path class="cls-3" d="M51.65,37,66.22,47.19a2,2,0,0,1,.6.58,2.07,2.07,0,0,1-.53,2.88l-14.51,10a2.08,2.08,0,0,1-3.39-1.62V38.72s.31-1.09.37-1.18A2.07,2.07,0,0,1,51.65,37Z"/></svg>